<svg width="170" height="26" viewBox="0 0 170 26" fill="none" xmlns="http://www.w3.org/2000/svg">
<g id="Frame" clip-path="url(#clip0_1_16)">
<path id="Vector" d="M0.0115933 17.1111L1.90828e-06 17.614C1.90828e-06 19.6608 -0.0115895 21.7076 1.90828e-06 23.7544C1.90828e-06 24.7719 0.718671 25.6374 1.72713 25.6725C3.1181 25.731 4.50907 25.6959 5.91163 25.6959C6.92009 25.6959 7.81263 24.7719 7.77785 23.6023C7.74308 22.2924 7.80104 20.9824 7.81263 19.6725C7.82422 17.8947 7.8474 16.1053 7.859 14.3275C7.859 14 7.90536 13.9415 8.21833 13.8596C8.91382 13.6608 9.64408 13.6374 10.3627 13.7895C11.6726 14.0702 12.6231 15.0877 12.7622 16.421C12.8317 17.0877 12.8317 17.7661 12.8433 18.4327C12.8665 20.1871 12.8781 21.9532 12.9013 23.7076C12.9129 24.8772 13.7474 25.7193 14.9066 25.7193C16.1469 25.731 17.3987 25.731 18.639 25.731C19.8098 25.731 20.6559 24.9006 20.6559 23.7076C20.6675 20.0936 20.6675 16.4795 20.6675 12.8655V12.7017C20.6328 12.3275 20.4937 12 20.1575 11.8012C19.9257 11.6608 19.6823 11.5555 19.4157 11.4854C18.4072 11.2398 17.364 11.193 16.3439 11.3567C15.5557 11.4737 14.7791 11.6725 13.9909 11.8363C12.9708 12.0585 11.916 12.117 10.8728 12.0234C9.52816 11.883 8.35743 11.3099 7.25624 10.538C6.73463 10.1754 6.21301 9.82456 5.66821 9.48537C5.0075 9.07602 4.27724 8.94736 3.51221 8.90058C2.70081 8.8538 1.87781 8.8304 1.07801 9.01754C0.440476 9.16959 0.115916 9.54385 0.0463677 10.1754C0.0347762 10.3158 0.0231848 10.4444 0.0231848 10.5848C0.0115933 12.7602 0.0115933 14.9357 0.0115933 17.1111ZM3.89472 7.88304C6.05073 7.89473 7.80104 6.12865 7.81263 3.95321C7.82422 1.77777 6.07391 0.0116926 3.91791 -3.27629e-06C1.7619 -0.0116992 0.0115933 1.75438 1.90828e-06 3.92982V3.94152C1.90828e-06 6.10526 1.73872 7.87134 3.89472 7.88304ZM20.5516 5.96491C20.5632 3.78947 18.8129 2.02339 16.6569 2.01169C14.5009 2 12.7506 3.76608 12.739 5.94152C12.7274 8.11695 14.4777 9.88304 16.6337 9.89473C18.8013 9.89473 20.54 8.14035 20.5516 5.96491ZM44.1634 25.6491H39.7007V17.8362H31.9228V25.6491H27.4717V6.57309H31.9344V13.8596H39.7123V6.57309H44.1634V25.6491ZM52.7294 13.9883C51.3501 13.9883 50.3764 14.7017 50.2257 16.0702H46.2035C46.3889 13.4152 48.939 11.0409 53.0888 11.0409C57.111 11.0409 59.4293 12.6784 59.3482 16.9941L59.3018 20.0702C59.2786 21.9181 59.3482 24.4444 59.6148 25.6491H55.3955L55.3375 23.9415C54.2943 25.4386 52.6251 25.9883 50.6198 25.9883C47.9538 25.9883 45.763 24.4093 45.763 21.8246C45.763 18.3509 49.6461 17.193 55.1057 16.7953V16.2573C55.0941 14.5965 54.2711 13.9883 52.7294 13.9883ZM52.1731 23.0526C53.8886 23.0526 55.1984 22.3158 55.1984 19.7076V19.3684C52.1962 19.6257 50.1909 20.0234 50.1909 21.5322C50.1909 22.4444 51.0603 23.0526 52.1731 23.0526ZM70.6034 11.1813C74.1968 11.1813 75.3212 13.3099 75.3212 17.1579V25.6608H71.0207V18.2339C71.0207 16.2105 70.9396 14.5497 68.8531 14.5497C67.0217 14.5497 66.2451 15.7895 66.2451 18.3977V25.6608H61.933V11.4971H66.2335V13.3684C66.871 12.3041 68.4127 11.1813 70.6034 11.1813ZM91.978 25.6491H87.6776V23.7544C86.7619 25.3099 84.9189 25.9883 83.3772 25.9883C79.7839 25.9883 77.199 23.2047 77.199 18.5614C77.199 13.9181 79.7839 11.1696 83.3772 11.1696C84.9189 11.1696 86.7735 11.8596 87.6776 13.4035V6.57309H91.978V25.6491ZM84.7798 22.6316C86.4721 22.6316 87.8863 21.4971 87.8863 18.5848C87.8863 15.6725 86.4721 14.5614 84.7798 14.5614C83.0642 14.5614 81.6501 15.9532 81.6501 18.5848C81.6501 21.2164 83.0526 22.6316 84.7798 22.6316ZM100.672 14.2807C99.2111 14.2807 98.4229 14.6784 98.4229 15.3333C98.4229 15.9883 98.9213 16.3626 100.15 16.5965L102.758 17.0643C106.154 17.6959 107.742 18.7017 107.742 21.193C107.742 24.3743 104.845 25.9883 100.961 25.9883C97.2522 25.9883 94.5745 24.3509 94.0761 21.0409H98.0635C98.4229 22.4093 99.5241 22.8304 101.008 22.8304C102.526 22.8304 103.616 22.4093 103.616 21.5672C103.616 20.9357 103.036 20.538 101.425 20.2573L98.9213 19.8362C96.2089 19.3918 94.3543 17.9883 94.3543 15.4971C94.3543 12.655 97.2985 11.1228 100.776 11.1228C103.987 11.1228 106.885 12.4327 107.429 15.6491H103.407C103.152 14.5965 102.028 14.2807 100.672 14.2807ZM123.171 17.1462V25.6491H118.87V18.2222C118.87 16.1988 118.824 14.538 116.726 14.538C114.894 14.538 114.095 15.7778 114.095 18.386V25.6491H109.794V6.57309H114.095V13.3684C114.72 12.3158 116.262 11.1813 118.453 11.1813C122.046 11.1813 123.171 13.3099 123.171 17.1462ZM132.026 13.9883C130.647 13.9883 129.685 14.7017 129.523 16.0702H125.5C125.686 13.4152 128.236 11.0409 132.386 11.0409C136.408 11.0409 138.726 12.6784 138.645 16.9941L138.599 20.0702C138.576 21.9181 138.645 24.4444 138.912 25.6491H134.692L134.646 23.9415C133.603 25.4386 131.934 25.9883 129.928 25.9883C127.262 25.9883 125.072 24.4093 125.072 21.8246C125.072 18.3509 128.955 17.193 134.414 16.7953V16.2573C134.403 14.5965 133.568 13.9883 132.026 13.9883ZM131.482 23.0526C133.209 23.0526 134.507 22.3158 134.507 19.7076V19.3684C131.505 19.6257 129.5 20.0234 129.5 21.5322C129.5 22.4444 130.357 23.0526 131.482 23.0526ZM145.565 16.8889L150.283 11.4971H155.372L150.364 16.924L155.789 25.6608H150.758L147.443 20.0819L145.565 22.1053V25.6608H141.265V6.57309H145.565V16.8889Z" fill="black"/>
<path id="Vector_2" d="M162.941 26C158.374 26 155.244 23.1813 155.244 18.5029C155.244 13.9766 158.664 11.076 162.755 11.076C167.404 11.076 170.267 14.655 169.977 19.6842H159.568C159.695 21.6842 161.237 22.6316 162.802 22.6316C164.425 22.6316 165.468 22.0468 165.955 21.2047H169.919C168.679 24.5497 165.758 26 162.941 26ZM165.7 17.0526C165.653 15.2865 164.367 14.3977 162.755 14.3977C161.248 14.3977 159.858 15.193 159.626 17.0526H165.7Z" fill="black"/>
</g>
<defs>
<clipPath id="clip0_1_16">
<rect width="170" height="26" fill="white"/>
</clipPath>
</defs>
</svg>
